Tere tulemast hotelli Transilvaania, Dracula uhkesse 5-tärni kuurortisse, kus koletised ja nende pereliikmed võivad lõõgastuda ning pidutseda, ilma et inimesed neid tülitaks. Ühel üsna erilisel nädalavahetusel kutsub Dracula mõned lähedased sõbrad - Frankensteini ühes naisukesega, muumia, nähtamatu mehe, libahundipere ja veel mitmed teised, et tähistada oma kalli tütre Mavise 118. sünnipäeva. Draculale ei valmista kõigi legendaarsete koletiste võõrustamine mingit probleemi, kuid ülikaitsva isa jaoks muutub kõik hetkest, mil üks tavaline nooruk tema hotelli eksib ja Mavis talle kangesti meeldima hakkab.

Video
ID                             : 0
Format                         : MPEG-4 Visual
Format profile                 : Advanced Simple@L5
Format settings, BVOP          : 2
Format settings, QPel          : No
Format settings, GMC           : No warppoints
Format settings, Matrix        : Default (H.263)
Codec ID                       : XVID
Codec ID/Hint                  : XviD
Duration                       : 1h 37mn
Bit rate                       : 1 390 Kbps
Width                          : 704 pixels
Height                         : 384 pixels
Display aspect ratio           : 1.85:1
Frame rate                     : 23.976 fps
Color space                    : YUV
Chroma subsampling             : 4:2:0
Bit depth                      : 8 bits
Scan type                      : Progressive
Compression mode               : Lossy
Bits/(Pixel*Frame)             : 0.214
Stream size                    : 964 MiB (61%)
Writing library                : XviD 73

Audio #1
ID                             : 1
Format                         : AC-3
Format/Info                    : Audio Coding 3
Mode extension                 : CM (complete main)
Format settings, Endianness    : Big
Codec ID                       : 2000
Duration                       : 1h 37mn
Bit rate mode                  : Constant
Bit rate                       : 448 Kbps
Channel(s)                     : 6 channels
Channel positions              : Front: L C R, Side: L R, LFE
Sampling rate                  : 48.0 KHz
Bit depth                      : 16 bits
Compression mode               : Lossy
Stream size                    : 311 MiB (20%)
Alignment                      : Aligned on interleaves
Interleave, duration           : 64 ms (1.53 video frames)
Interleave, preload duration   : 192 ms

Audio #2
ID                             : 2
Format                         : AC-3
Format/Info                    : Audio Coding 3
Mode extension                 : CM (complete main)
Format settings, Endianness    : Big
Codec ID                       : 2000
Duration                       : 1h 37mn
Bit rate mode                  : Constant
Bit rate                       : 448 Kbps
Channel(s)                     : 6 channels
Channel positions              : Front: L C R, Side: L R, LFE
Sampling rate                  : 48.0 KHz
Bit depth                      : 16 bits
Compression mode               : Lossy
Stream size                    : 311 MiB (20%)
Alignment                      : Aligned on interleaves
Interleave, duration           : 64 ms (1.53 video frames)
Interleave, preload duration   : 192 ms
Title                          : eng		